<?xml version="1.0" encoding="UTF-8"?>
<svg width="28px" height="22px" viewBox="0 0 28 22" version="1.1" xmlns="http://www.w3.org/2000/svg" xmlns:xlink="http://www.w3.org/1999/xlink">
    <!-- Generator: Sketch 49 (51002) - http://www.bohemiancoding.com/sketch -->
    <title>path-1</title>
    <desc>Created with Sketch.</desc>
    <defs>
        <path d="M27,5 L1,5 L1,2 C1,1.448 1.448,1 2,1 L26,1 C26.552,1 27,1.448 27,2 L27,5 Z M1,9 L27,9 L27,6 L1,6 L1,9 Z M27,20 C27,20.552 26.552,21 26,21 L2,21 C1.448,21 1,20.552 1,20 L1,10 L27,10 L27,20 Z M26,0 L2,0 C0.897,0 0,0.897 0,2 L0,5 L0,6 L0,9 L0,10 L0,20 C0,21.103 0.897,22 2,22 L26,22 C27.103,22 28,21.103 28,20 L28,10 L28,9 L28,6 L28,5 L28,2 C28,0.897 27.103,0 26,0 Z M18.1465,13.1465 C18.2445,13.0485 18.3725,13.0005 18.5005,13.0005 C18.6275,13.0005 18.7555,13.0485 18.8535,13.1465 C19.0485,13.3415 19.0485,13.6585 18.8535,13.8535 C18.7555,13.9515 18.6275,14.0005 18.5005,14.0005 C18.3725,14.0005 18.2445,13.9515 18.1465,13.8535 C17.9515,13.6585 17.9515,13.3415 18.1465,13.1465 Z M18.5005,15.0005 C18.9005,15.0005 19.2775,14.8445 19.5605,14.5615 C20.1455,13.9755 20.1455,13.0245 19.5605,12.4395 C19.2775,12.1555 18.9005,12.0005 18.5005,12.0005 C18.0995,12.0005 17.7225,12.1555 17.4395,12.4395 C16.8545,13.0245 16.8545,13.9755 17.4395,14.5605 C17.7225,14.8445 18.0995,15.0005 18.5005,15.0005 Z M22.8535,17.8535 C22.7555,17.9515 22.6275,17.9995 22.4995,17.9995 C22.3725,17.9995 22.2445,17.9515 22.1465,17.8535 C21.9515,17.6585 21.9515,17.3415 22.1465,17.1465 C22.2445,17.0485 22.3725,16.9995 22.4995,16.9995 C22.6275,16.9995 22.7555,17.0485 22.8535,17.1465 C23.0485,17.3415 23.0485,17.6585 22.8535,17.8535 Z M22.4995,15.9995 C22.9005,15.9995 23.2775,16.1555 23.5605,16.4395 C24.1455,17.0245 24.1455,17.9755 23.5605,18.5615 C23.2775,18.8445 22.9005,18.9995 22.4995,18.9995 C22.0995,18.9995 21.7225,18.8445 21.4395,18.5605 C20.8545,17.9755 20.8545,17.0245 21.4395,16.4395 C21.7225,16.1555 22.0995,15.9995 22.4995,15.9995 Z M17.5,19 C17.372,19 17.244,18.951 17.146,18.854 C16.951,18.658 16.951,18.342 17.146,18.146 L23.146,12.146 C23.342,11.951 23.658,11.951 23.854,12.146 C24.049,12.342 24.049,12.658 23.854,12.854 L17.854,18.854 C17.756,18.951 17.628,19 17.5,19 Z M3.5,15 C3.224,15 3,14.776 3,14.5 C3,14.224 3.224,14 3.5,14 L11.5,14 C11.776,14 12,14.224 12,14.5 C12,14.776 11.776,15 11.5,15 L3.5,15 Z M3.5,18 C3.224,18 3,17.776 3,17.5 C3,17.224 3.224,17 3.5,17 L9.5,17 C9.776,17 10,17.224 10,17.5 C10,17.776 9.776,18 9.5,18 L3.5,18 Z" id="path-1"></path>
    </defs>
    <g id="Page-1" stroke="none" stroke-width="1" fill="none" fill-rule="evenodd">
        <mask id="mask-2" fill="white">
            <use xlink:href="#path-1"></use>
        </mask>
        <use id="path-1" fill="#000000" xlink:href="#path-1"></use>
    </g>
</svg>