<?xml version="1.0" encoding="UTF-8"?>
<svg width="32px" height="33px" viewBox="0 0 32 33" version="1.1" xmlns="http://www.w3.org/2000/svg" xmlns:xlink="http://www.w3.org/1999/xlink">
    <!-- Generator: Sketch 50.2 (55047) - http://www.bohemiancoding.com/sketch -->
    <title>icon/plant a tree light</title>
    <desc>Created with Sketch.</desc>
    <defs></defs>
    <g id="icon/plant-a-tree-light" stroke="none" stroke-width="1" fill="none" fill-rule="evenodd">
        <g id="plant-a-tree" stroke="#000000" stroke-linecap="round" stroke-linejoin="round">
            <path d="M11.5539723,13.8718545 C11.5539723,13.0655515 12.2160787,12.4095515 13.0298872,12.4095515 C13.4243128,12.4095515 13.7947596,12.5617939 14.0736957,12.8381576 L14.3056532,13.0670061 L14.5376106,12.8376727 C14.8165468,12.5617939 15.1869936,12.4095515 15.5809298,12.4095515 C16.3952277,12.4095515 17.057334,13.0655515 17.057334,13.8718545 C17.057334,14.2626424 16.9036745,14.6296727 16.6247383,14.9060364 L14.3056532,17.2042182 L11.9860787,14.9060364 C11.7071426,14.6301576 11.5539723,14.2626424 11.5539723,13.8718545 Z M22.0671255,18.2212848 C22.0671255,17.4149818 22.7292319,16.7589818 23.5430404,16.7589818 C23.937466,16.7589818 24.3079128,16.9112242 24.5868489,17.1875879 L24.8188064,17.4164364 L25.0507638,17.1875879 C25.3292106,16.9112242 25.7001468,16.7589818 26.094083,16.7589818 C26.9083809,16.7589818 27.5704872,17.4149818 27.5704872,18.2212848 C27.5704872,18.6120727 27.4168277,18.979103 27.1378915,19.2554667 L24.8188064,21.5536485 L22.4992319,19.2554667 C22.2202957,18.9795879 22.0671255,18.6120727 22.0671255,18.2212848 Z M4.99990213,21.6982788 C4.99990213,20.9836121 5.58664681,20.4022788 6.30796596,20.4022788 C6.65737021,20.4022788 6.98622128,20.5370667 7.23334894,20.7819152 L7.43839149,20.9850667 L7.64441277,20.7819152 C7.89154043,20.5370667 8.21990213,20.4022788 8.56930638,20.4022788 C9.29062553,20.4022788 9.87737021,20.9836121 9.87737021,21.6982788 C9.87737021,22.0444606 9.74132766,22.3697939 9.4942,22.6146424 L7.43839149,24.6510061 L5.38307234,22.6146424 C5.13594468,22.3702788 4.99990213,22.0444606 4.99990213,21.6982788 Z M14.8046064,22.4755394 L14.176266,31.5150545 M22.2393809,31.5150545 L18.5897213,31.5150545 L17.7157213,24.5686303 M26.9079404,31.5150545 C26.4293447,30.7325091 25.5646426,30.2074182 24.5736851,30.2074182 C23.5827277,30.2074182 22.7175362,30.7325091 22.2394298,31.5150545 M17.7156723,24.5685818 C18.5260553,25.2905212 19.5977574,25.7302788 20.774183,25.7302788 C23.3061404,25.7302788 25.3585234,23.6963394 25.3585234,21.1877333 M8.60297447,24.2714667 C9.44027234,25.1684364 10.6387191,25.7298909 11.9688043,25.7298909 C12.9010383,25.7298909 13.7676979,25.4540121 14.4904851,24.9803152 M9.88754894,7.33323636 C7.74757021,8.15990303 6.22908085,10.2161455 6.22908085,12.6287515 C6.22908085,14.7635394 7.41774043,16.6209939 9.17357021,17.5936 C8.43071915,18.1613576 7.86746383,18.9487515 7.58510213,19.8578424 M14,31.5 C11,31.5 9.5,31.5 9.5,31.5 M5,5.5 C2,5.5 0.5,5.5 0.5,5.5 M9,2.5 C6,2.5 4.5,2.5 4.5,2.5 M19.675753,1.79653745 C18.6381367,0.975459169 17.3226962,0.484606061 15.8914298,0.484606061 C13.2111957,0.484606061 10.9371319,2.20581818 10.1331106,4.59321212 M24.7156,16.7596121 C25.8225362,15.7234909 26.5140043,14.2568242 26.5140043,12.628703" id="Stroke-3"></path>
        </g>
        <path d="M20,4.8875 C20,3.295 21.295,2 22.8875,2 C23.659,2 24.3845,2.3 24.93,2.846 L25.3835,3.298 L25.8375,2.8455 C26.383,2.3 27.1085,2 27.8795,2 C29.472,2 30.767,3.295 30.767,4.8875 C30.767,5.659 30.467,6.384 29.9215,6.9295 L25.3835,11.4675 L20.8455,6.9295 C20.3005,6.3845 20,5.659 20,4.8875 Z" id="Stroke-11" fill="#FFB902"></path>
    </g>
</svg>